<svg xmlns="http://www.w3.org/2000/svg" width="1200" height="630" viewBox="0 0 1200 630">
  <defs>
    <linearGradient id="bg" x1="0" y1="0" x2="1" y2="1">
      <stop offset="0" stop-color="#15345f"/>
      <stop offset=".72" stop-color="#08172a"/>
      <stop offset="1" stop-color="#07111f"/>
    </linearGradient>
    <linearGradient id="panel" x1="0" y1="0" x2="1" y2="1">
      <stop offset="0" stop-color="#19375f"/>
      <stop offset="1" stop-color="#0d223d"/>
    </linearGradient>
    <filter id="shadow" x="-20%" y="-20%" width="140%" height="160%">
      <feDropShadow dx="0" dy="18" stdDeviation="18" flood-color="#020b17" flood-opacity=".3"/>
    </filter>
  </defs>
  <rect width="1200" height="630" fill="url(#bg)"/>
  <g opacity=".055" stroke="#fff">
    <path d="M720 0V630M800 0V630M880 0V630M960 0V630M1040 0V630M1120 0V630"/>
    <path d="M680 70H1200M680 150H1200M680 230H1200M680 310H1200M680 390H1200M680 470H1200M680 550H1200"/>
  </g>

  <rect x="78" y="76" width="8" height="8" fill="none" stroke="#f2aa3c" transform="rotate(45 82 80)"/>
  <text x="102" y="87" fill="#f2aa3c" font-family="'Noto Sans CJK KR', 'NanumBarunGothic', sans-serif" font-size="22" font-weight="600" letter-spacing="1">
    비개발자 CLAUDE 업무 하네스 핸즈온
  </text>
  <text x="76" y="218" fill="#fff" font-family="'Noto Sans CJK KR', 'NanumBarunGothic', sans-serif" font-size="68" font-weight="700" letter-spacing="-3">
    답하는 AI에서,
  </text>
  <text x="76" y="306" fill="#f2aa3c" font-family="'Noto Sans CJK KR', 'NanumBarunGothic', sans-serif" font-size="68" font-weight="700" letter-spacing="-3">
    일하는 AI로.
  </text>
  <text x="78" y="370" fill="#bac7d8" font-family="'Noto Sans CJK KR', 'NanumBarunGothic', sans-serif" font-size="23" font-weight="450">
    MCP · SKILL · PLUGIN을 연결해 업무 환경 한 세트 완성
  </text>
  <line x1="78" y1="436" x2="624" y2="436" stroke="#fff" stroke-opacity=".22"/>
  <text x="78" y="486" fill="#fff" font-family="'Noto Sans CJK KR', 'NanumBarunGothic', sans-serif" font-size="23" font-weight="600">
    8월 8일 토요일 오후 1시
  </text>
  <text x="78" y="528" fill="#9babc0" font-family="'Noto Sans CJK KR', 'NanumBarunGothic', sans-serif" font-size="21" font-weight="450">
    마곡·가양  ·  4~5인  ·  파일럿 참가비 5만원
  </text>

  <g filter="url(#shadow)">
    <rect x="738" y="96" width="390" height="120" rx="14" fill="url(#panel)" stroke="#fff" stroke-opacity=".18"/>
    <text x="768" y="133" fill="#9caec4" font-family="monospace" font-size="13" font-weight="600" letter-spacing="1">01 INPUT</text>
    <text x="768" y="175" fill="#fff" font-family="'Noto Sans CJK KR', sans-serif" font-size="23" font-weight="600">업무 메일과 자료</text>
    <circle cx="1083" cy="134" r="12" fill="#f2aa3c" fill-opacity=".16" stroke="#f2aa3c"/>

    <path d="M933 216V274" stroke="#f2aa3c" stroke-width="2"/>
    <circle cx="933" cy="245" r="4" fill="#f2aa3c"/>
    <rect x="786" y="274" width="294" height="72" rx="10" fill="#07111f" stroke="#f2aa3c" stroke-opacity=".7"/>
    <text x="810" y="318" fill="#f2aa3c" font-family="monospace" font-size="15" font-weight="600">MCP · SKILL · PLUGIN</text>

    <path d="M933 346V386M817 386H1049M817 386V412M1049 386V412" fill="none" stroke="#f2aa3c" stroke-width="2"/>
    <rect x="728" y="412" width="218" height="112" rx="12" fill="url(#panel)" stroke="#fff" stroke-opacity=".18"/>
    <text x="754" y="448" fill="#9caec4" font-family="monospace" font-size="12" font-weight="600">02 EVIDENCE</text>
    <text x="754" y="491" fill="#fff" font-family="'Noto Sans CJK KR', sans-serif" font-size="22" font-weight="600">근거표</text>

    <rect x="966" y="412" width="218" height="112" rx="12" fill="url(#panel)" stroke="#f2aa3c" stroke-opacity=".65"/>
    <text x="992" y="448" fill="#d6aa65" font-family="monospace" font-size="12" font-weight="600">03 OUTPUT</text>
    <text x="992" y="491" fill="#fff" font-family="'Noto Sans CJK KR', sans-serif" font-size="22" font-weight="600">제안서</text>
  </g>
</svg>
